<svg xmlns="http://www.w3.org/2000/svg" width="18.702" height="29.525" viewBox="0 0 18.702 29.525"><path class="a" d="M78.5,176.689h0a47.765,47.765,0,0,0-1.236-5.944A26.453,26.453,0,0,0,75.53,166.1c-1.343-2.683-2.91-4.1-4.53-4.1h0c1.62,0,3.186-1.418,4.529-4.1a26.454,26.454,0,0,0,1.733-4.644A47.769,47.769,0,0,0,78.5,147.31a47.764,47.764,0,0,0,1.236,5.945A26.456,26.456,0,0,0,81.47,157.9c1.343,2.683,2.91,4.1,4.53,4.1h0c-1.62,0-3.186,1.418-4.529,4.1a26.454,26.454,0,0,0-1.733,4.644,47.762,47.762,0,0,0-1.236,5.944Z" transform="translate(-69.149 -147.238)"/></svg>