<svg xmlns="http://www.w3.org/2000/svg" width="30.28" height="32.957" viewBox="0 0 30.28 32.957"><path class="a" d="M86,176.689h0a28.564,28.564,0,0,0-2.472-5.944A21.254,21.254,0,0,0,80.06,166.1,12.815,12.815,0,0,0,71,162h0a12.812,12.812,0,0,0,9.058-4.1,21.254,21.254,0,0,0,3.467-4.644A28.565,28.565,0,0,0,86,147.31a28.565,28.565,0,0,0,2.473,5.945A21.256,21.256,0,0,0,91.94,157.9,12.815,12.815,0,0,0,101,162h0a12.812,12.812,0,0,0-9.058,4.1,21.255,21.255,0,0,0-3.467,4.644A28.565,28.565,0,0,0,86,176.688Z" transform="translate(-70.86 -145.535)"/></svg>