<svg xmlns="http://www.w3.org/2000/svg" width="30.226" height="26.301" viewBox="0 0 30.226 26.301"><path class="a" d="M86,170.689h0a20.484,20.484,0,0,0-2.472-4.73,17.872,17.872,0,0,0-3.467-3.7A14.484,14.484,0,0,0,71,159h0a14.481,14.481,0,0,0,9.058-3.263,17.872,17.872,0,0,0,3.467-3.7A20.485,20.485,0,0,0,86,147.31a20.484,20.484,0,0,0,2.473,4.731,17.874,17.874,0,0,0,3.467,3.7A14.485,14.485,0,0,0,101,159h0a14.481,14.481,0,0,0-9.058,3.263,17.873,17.873,0,0,0-3.467,3.7A20.485,20.485,0,0,0,86,170.689Z" transform="translate(-70.887 -145.865)"/></svg>